<svg width="575" height="157" viewBox="0 0 575 157" fill="none" xmlns="http://www.w3.org/2000/svg">
<path d="M504.345 154.488C497.419 154.488 490.777 153.852 484.417 152.58C478.198 151.308 472.686 148.905 467.881 145.372C463.217 141.697 459.471 136.468 456.645 129.684C453.959 122.759 452.617 113.713 452.617 102.548C452.617 92.5133 453.959 83.892 456.645 76.684C459.33 69.476 462.51 63.752 466.185 59.512C470.001 55.272 473.463 52.6573 476.573 51.668L475.513 47.64H471.909C465.407 47.64 460.249 45.5907 456.433 41.492C452.758 37.252 450.85 31.528 450.709 24.32C450.567 17.2533 452.405 11.6 456.221 7.35999C460.178 3.12 465.407 1 471.909 1H548.017C563.139 1 570.701 8.06666 570.701 22.2C570.701 28.56 568.863 33.648 565.189 37.464C561.514 41.28 555.79 43.188 548.017 43.188H504.133C498.903 43.188 496.289 46.2267 496.289 52.304V68.204C503.355 66.6493 510.705 64.812 518.337 62.692C526.11 60.572 533.459 59.512 540.385 59.512C547.027 59.512 551.974 60.996 555.225 63.964C558.617 66.7907 560.313 70.6773 560.313 75.624C560.313 80.712 558.617 84.74 555.225 87.708C551.974 90.5347 547.027 92.0187 540.385 92.16C533.459 92.3013 526.11 91.312 518.337 89.192C510.563 87.072 503.143 85.2347 496.077 83.68V111.452C496.077 114.137 496.783 116.045 498.197 117.176C499.751 118.165 502.154 117.741 505.405 115.904C512.471 111.805 519.397 108.555 526.181 106.152C532.965 103.608 539.607 102.336 546.109 102.336C555.295 102.336 562.221 104.739 566.885 109.544C571.69 114.349 574.093 120.639 574.093 128.412C574.093 136.751 571.549 143.181 566.461 147.704C561.514 152.227 553.458 154.488 542.293 154.488H504.345Z" fill="black"/>
<path d="M381.069 156.032C373.154 156.032 365.169 155.255 357.113 153.7C349.198 152.004 341.849 149.601 335.065 146.492C328.422 143.241 323.051 139.355 318.953 134.832C314.854 130.168 312.805 124.797 312.805 118.72C312.805 110.947 315.278 104.728 320.225 100.064C325.171 95.4 330.966 93.2093 337.609 93.492C342.838 93.6333 348.067 94.764 353.297 96.884C358.526 98.8627 363.826 100.841 369.197 102.82C374.709 104.799 380.221 105.788 385.733 105.788C391.245 105.788 395.061 105.081 397.181 103.668C399.301 102.255 400.361 100.347 400.361 97.944C400.361 95.1173 398.877 92.7853 395.909 90.948C392.941 89.1107 389.195 87.6973 384.673 86.708L374.285 84.164C363.543 81.62 353.933 78.7933 345.453 75.684C336.973 72.4333 330.259 68.1933 325.313 62.964C320.507 57.5933 318.105 50.456 318.105 41.552C318.105 31.8 320.79 23.8853 326.161 17.808C331.531 11.5893 338.81 7.06667 347.997 4.24C357.183 1.41333 367.43 0 378.737 0C390.326 0 400.502 1.20133 409.265 3.604C418.027 6.00666 424.811 9.46933 429.617 13.992C434.563 18.5147 437.037 24.0267 437.037 30.528C437.037 37.4533 435.129 42.8947 431.313 46.852C427.638 50.668 422.691 52.576 416.473 52.576C412.374 52.576 408.063 51.8693 403.541 50.456C399.159 49.0427 394.495 47.7 389.549 46.428C384.743 45.0147 379.585 44.308 374.073 44.308C369.126 44.308 365.381 45.0853 362.837 46.64C360.293 48.0533 359.021 49.9613 359.021 52.364C359.021 55.332 360.717 57.5227 364.109 58.936C367.501 60.3493 373.083 62.0453 380.857 64.024L392.729 66.78C402.481 69.1827 411.031 72.08 418.381 75.472C425.73 78.864 431.454 83.316 435.553 88.828C439.651 94.34 441.701 101.548 441.701 110.452C441.701 121.193 439.157 129.956 434.069 136.74C428.981 143.383 421.914 148.259 412.869 151.368C403.823 154.477 393.223 156.032 381.069 156.032Z" fill="black"/>
<path d="M240.841 155.972C232.361 155.831 224.234 154.7 216.461 152.58C208.829 150.46 201.974 146.997 195.897 142.192C189.819 137.387 185.014 130.956 181.481 122.9C178.089 114.844 176.393 104.88 176.393 93.008V21.14C176.393 14.356 178.583 9.33866 182.965 6.088C187.487 2.696 192.717 1 198.653 1C204.447 1 209.606 2.696 214.129 6.088C218.651 9.33866 220.913 14.356 220.913 21.14V83.044C220.913 93.0787 223.245 100.428 227.909 105.092C232.714 109.756 238.862 111.876 246.353 111.452C254.267 110.887 259.921 107.848 263.313 102.336C266.846 96.824 267.835 89.4747 266.281 80.288C265.291 74.0693 264.161 68.84 262.889 64.6C261.758 60.36 260.557 56.6147 259.285 53.364C258.154 49.972 257.165 46.6507 256.317 43.4C255.469 40.008 254.833 36.0507 254.409 31.528C253.561 22.0587 255.469 14.6387 260.133 9.26801C264.938 3.756 271.227 1 279.001 1C286.774 1 292.851 3.61466 297.233 8.84399C301.614 14.0733 303.805 21.988 303.805 32.588V93.008C303.805 104.88 302.109 114.915 298.717 123.112C295.466 131.168 290.873 137.669 284.937 142.616C279.142 147.421 272.429 150.884 264.797 153.004C257.306 154.983 249.321 155.972 240.841 155.972Z" fill="black"/>
<path d="M21.624 155.336C14.2747 155.336 8.83333 153.145 5.3 148.764C1.76667 144.383 0 138.517 0 131.168V32.376C0 21.6347 2.89733 13.72 8.692 8.632C14.628 3.54399 21.6947 1 29.892 1C37.6653 1 44.2373 3.54399 49.608 8.632C55.12 13.72 59.148 21.776 61.692 32.8L78.228 104.668H83.74L100.276 32.8C102.82 21.776 106.848 13.72 112.36 8.632C118.013 3.54399 124.727 1 132.5 1C140.697 1 147.693 3.54399 153.488 8.632C159.424 13.72 162.392 21.6347 162.392 32.376V131.168C162.392 138.517 160.555 144.383 156.88 148.764C153.347 153.145 147.905 155.336 140.556 155.336C133.489 155.336 128.048 153.145 124.232 148.764C120.416 144.383 118.508 138.517 118.508 131.168V74.14C118.508 72.7267 118.296 71.4547 117.872 70.324C117.589 69.052 116.671 68.416 115.116 68.416C113.844 68.416 112.925 69.052 112.36 70.324C111.795 71.4547 111.371 72.7267 111.088 74.14L103.032 127.564C102.043 133.359 100.841 138.376 99.428 142.616C98.156 146.715 96.1067 149.895 93.28 152.156C90.4533 154.276 86.3547 155.336 80.984 155.336C75.7547 155.336 71.656 154.276 68.688 152.156C65.8613 149.895 63.7413 146.715 62.328 142.616C61.056 138.376 59.996 133.359 59.148 127.564L50.88 74.14C50.7387 72.7267 50.3853 71.4547 49.82 70.324C49.2547 69.052 48.2653 68.416 46.852 68.416C45.4387 68.416 44.52 69.052 44.096 70.324C43.672 71.4547 43.46 72.7267 43.46 74.14V131.168C43.46 138.517 41.552 144.383 37.736 148.764C34.0613 153.145 28.6907 155.336 21.624 155.336Z" fill="black"/>
</svg>
