<svg width="591" height="590" viewBox="0 0 591 590" fill="none" xmlns="http://www.w3.org/2000/svg">
<path fill-rule="evenodd" clip-rule="evenodd" d="M140.87 0C142.399 4.85014 143.788 9.97933 145.037 15.3877L187.397 199.323H201.518L243.878 15.3877C245.127 9.97934 246.516 4.85016 248.045 0H462.31C462.783 4.17634 462.065 8.70885 460.153 13.5977L429.027 93.2119C423.982 106.117 423.286 116.743 426.941 125.087C430.778 133.502 437.623 139.321 447.473 142.543C450.409 143.456 453.214 144.028 455.888 144.261C458.143 144.182 460.412 144.121 462.694 144.078C466.79 143.458 470.517 141.883 473.875 139.35C481.192 134.038 486.161 125.083 488.78 112.486C490.634 103.991 491.808 96.6972 492.304 90.6045C492.981 84.5827 493.319 79.1613 493.317 74.3408C493.568 69.4097 493.965 64.6404 494.509 60.0332C495.123 55.2443 496.295 49.8345 498.023 43.8047C501.694 31.2 507.88 22.617 516.58 18.0557C525.534 13.3837 535.011 13.0024 545.012 16.9121C555.012 20.8219 561.516 27.2418 564.523 36.1709C567.531 45.1 566.369 56.3811 561.039 70.0137L530.659 147.72C530.655 147.729 530.651 147.739 530.647 147.748C544.913 149.679 558.3 152.357 570.807 155.78C577.938 157.732 584.669 159.898 591 162.278V315.797C578.604 315.441 565.626 313.149 552.066 308.919C537.722 304.299 522.452 299.911 506.257 295.753C490.525 291.133 473.636 288.823 455.59 288.823C439.395 288.823 427.132 291.364 418.803 296.445C410.474 301.065 406.31 307.302 406.31 315.155C406.31 324.856 411.863 332.016 422.968 336.636C434.073 341.255 452.35 346.799 477.8 353.267L516.668 362.274C544.416 369.1 569.193 377.146 591 386.414V590H0V288.477L137.544 251.62L117.34 121.191C116.978 117.574 116.073 114.318 114.625 111.425C113.177 108.169 110.642 106.541 107.021 106.541C103.401 106.541 101.047 108.169 99.9609 111.425C98.8749 114.318 98.332 117.574 98.332 121.191V167.146C98.332 185.955 93.4443 200.966 83.6689 212.18C74.2555 223.393 60.4972 229 42.3945 229C23.568 229 9.62841 223.393 0.577148 212.18C0.382278 211.938 0.190675 211.694 0 211.449V0H140.87ZM281.894 106.541C278.635 106.541 276.281 108.169 274.833 111.425C273.385 114.318 272.299 117.574 271.575 121.191L250.938 257.922C248.403 272.752 245.326 285.594 241.705 296.445C238.447 306.935 233.197 315.074 225.956 320.861C216.755 327.756 201.585 331.937 190.53 334.899L90.8262 361.614C78.9454 364.798 74.7601 372.941 78.2705 386.042L87.4551 420.317C102.612 412.664 118.248 404.229 134.363 395.013C150.799 385.71 166.885 378.951 182.619 374.735C197.711 370.691 209.807 370.88 218.907 375.299C228.246 379.327 234.345 386.673 237.202 397.337C240.141 408.305 238.615 418.021 232.623 426.484C226.87 434.557 216.488 440.768 201.478 445.116C185.825 449.637 168.556 451.979 149.671 452.141C130.786 452.303 112.866 452.859 95.9131 453.81L111.954 513.679C113.505 519.467 116.213 523.15 120.077 524.728C124.181 525.914 129.395 523.537 135.719 517.598C178.465 476.57 233.302 446.156 293.5 443.5C345.079 441.225 392.289 462.662 439.626 480.073C457.672 486.541 475.718 489.774 493.764 489.774C511.81 489.774 524.303 487.464 531.244 482.845C538.185 478.225 541.655 471.989 541.655 464.136C541.655 454.897 536.796 447.274 527.079 441.269C517.362 435.263 505.1 430.644 490.293 427.41L456.283 419.095C421.117 410.78 389.652 401.541 361.889 391.378C334.126 380.753 312.146 366.894 295.951 349.802C280.219 332.247 272.353 308.919 272.353 279.815C272.353 226.312 290.583 177.331 290.583 121.191C290.583 117.574 290.039 114.319 288.953 111.425C288.229 108.169 285.876 106.541 281.894 106.541Z" fill="black"/>
</svg>
