<svg width="389" height="389" viewBox="0 0 389 389" fill="none" xmlns="http://www.w3.org/2000/svg">
<path d="M245.5 0C253.697 0 260.694 2.54383 266.488 7.63184C272.424 12.7198 275.392 20.6347 275.392 31.376V113H356.962C367.703 113 375.618 115.898 380.706 121.692C385.794 127.628 388.338 134.695 388.338 142.892C388.338 150.665 385.794 157.238 380.706 162.608C375.618 168.12 367.562 172.148 356.538 174.692L284.67 191.228V196.74L356.538 213.276C367.562 215.82 375.618 219.848 380.706 225.36C385.794 231.014 388.338 237.727 388.338 245.5C388.338 253.697 385.794 260.694 380.706 266.488C375.618 272.424 367.703 275.392 356.962 275.392H275.393V356.962C275.393 367.703 272.495 375.618 266.7 380.706C260.764 385.794 253.698 388.338 245.501 388.338C237.728 388.338 231.155 385.794 225.784 380.706C220.272 375.618 216.244 367.562 213.7 356.538L197.165 284.67H191.652L175.116 356.538C172.572 367.562 168.544 375.618 163.032 380.706C157.379 385.794 150.666 388.338 142.893 388.338C134.695 388.338 127.699 385.794 121.904 380.706C115.968 375.618 113.001 367.703 113.001 356.962V275.392H31.376C20.6347 275.392 12.7198 272.495 7.63184 266.7C2.54384 260.764 3.58317e-07 253.697 0 245.5C1.88028e-05 237.727 2.54393 231.155 7.63184 225.784C12.7198 220.272 20.7759 216.244 31.7998 213.7L103.668 197.164V191.652L31.7998 175.116C20.7759 172.572 12.7198 168.544 7.63184 163.032C2.54394 157.379 0.000106876 150.666 0 142.893C-3.58313e-07 134.695 2.54395 127.699 7.63184 121.904C12.7198 115.968 20.6347 113 31.376 113H113V31.376C113 20.6347 115.898 12.7198 121.692 7.63184C127.628 2.54409 134.695 8.28719e-05 142.892 0C150.665 0 157.238 2.54383 162.608 7.63184C168.12 12.7198 172.148 20.7759 174.692 31.7998L191.228 103.668H196.74L213.276 31.7998C215.82 20.7759 219.848 12.7198 225.36 7.63184C231.014 2.544 237.727 0 245.5 0ZM228.116 67.416C226.844 67.416 225.926 68.0522 225.36 69.3242C224.795 70.4548 224.371 71.7265 224.088 73.1396L216.032 126.564C215.043 132.359 213.841 137.376 212.428 141.616C211.156 145.715 209.107 148.895 206.28 151.156C203.454 153.276 199.355 154.336 193.984 154.336C188.755 154.336 184.656 153.276 181.688 151.156C178.862 148.895 176.741 145.715 175.328 141.616C174.056 137.376 172.996 132.359 172.148 126.564L163.88 73.1396C163.739 71.7266 163.386 70.4547 162.82 69.3242C162.255 68.0522 161.265 67.416 159.852 67.416C158.438 67.4161 157.52 68.0524 157.096 69.3242C156.672 70.4547 156.46 71.7266 156.46 73.1396V130.168C156.46 137.327 154.648 143.077 151.026 147.42C150.123 148.803 149.037 150.051 147.764 151.16C143.382 154.976 137.517 156.884 130.168 156.884H73.1396C71.7265 156.884 70.4548 157.097 69.3242 157.521C68.0522 157.803 67.416 158.722 67.416 160.276C67.4161 161.548 68.0523 162.467 69.3242 163.032C70.4547 163.597 71.7266 164.021 73.1396 164.304L126.564 172.36C132.359 173.35 137.376 174.551 141.616 175.964C145.715 177.236 148.895 179.286 151.156 182.112C153.276 184.939 154.336 189.038 154.336 194.408C154.336 199.637 153.276 203.736 151.156 206.704C148.895 209.531 145.715 211.651 141.616 213.064C137.376 214.336 132.359 215.396 126.564 216.244L73.1396 224.512C71.7265 224.653 70.4548 225.007 69.3242 225.572C68.0522 226.138 67.416 227.127 67.416 228.54C67.416 229.953 68.0522 230.872 69.3242 231.296C70.4548 231.72 71.7265 231.932 73.1396 231.932H130.168C137.155 231.932 142.799 233.658 147.104 237.106C148.615 238.048 149.967 239.204 151.16 240.574C154.976 244.956 156.885 250.821 156.885 258.17V315.198C156.885 316.611 157.097 317.883 157.521 319.014C157.803 320.286 158.722 320.922 160.276 320.922C161.548 320.922 162.467 320.286 163.032 319.014C163.598 317.883 164.022 316.611 164.305 315.198L172.36 261.773C173.35 255.979 174.552 250.962 175.965 246.722C177.237 242.623 179.286 239.443 182.112 237.182C184.939 235.062 189.038 234.002 194.408 234.002C199.637 234.002 203.736 235.062 206.704 237.182C209.531 239.443 211.651 242.623 213.064 246.722C214.336 250.962 215.396 255.979 216.244 261.773L224.513 315.198C224.654 316.611 225.007 317.883 225.572 319.014C226.138 320.286 227.128 320.922 228.541 320.922C229.954 320.922 230.873 320.286 231.297 319.014C231.721 317.883 231.933 316.611 231.933 315.198V258.17C231.933 251.067 233.715 245.35 237.279 241.02C238.189 239.617 239.286 238.354 240.574 237.232C244.956 233.416 250.821 231.508 258.17 231.508H315.198C316.611 231.508 317.883 231.296 319.014 230.872C320.286 230.589 320.922 229.671 320.922 228.116C320.922 226.844 320.286 225.926 319.014 225.36C317.883 224.795 316.611 224.371 315.198 224.088L261.773 216.032C255.979 215.043 250.962 213.841 246.722 212.428C242.623 211.156 239.443 209.107 237.182 206.28C235.062 203.454 234.002 199.355 234.002 193.984C234.002 188.755 235.062 184.656 237.182 181.688C239.443 178.862 242.623 176.741 246.722 175.328C250.962 174.056 255.979 172.996 261.773 172.148L315.198 163.88C316.611 163.739 317.883 163.386 319.014 162.82C320.286 162.255 320.922 161.265 320.922 159.852C320.922 158.438 320.286 157.52 319.014 157.096C317.883 156.672 316.611 156.46 315.198 156.46H258.17C250.901 156.46 245.084 154.592 240.719 150.859C239.436 149.99 238.273 148.959 237.232 147.764C233.416 143.382 231.508 137.517 231.508 130.168V73.1396C231.508 71.7266 231.296 70.4547 230.872 69.3242C230.589 68.0523 229.671 67.4161 228.116 67.416Z" fill="black"/>
</svg>
